<svg xmlns="http://www.w3.org/2000/svg" x="0px" y="0px"
width="45" height="45"
viewBox="0 0 172 172"
style=" fill:#ffffff;"><g fill="none" fill-rule="nonzero" stroke="none" stroke-width="1" stroke-linecap="butt" stroke-linejoin="miter" stroke-miterlimit="10" stroke-dasharray="" stroke-dashoffset="0" font-family="none" font-weight="none" font-size="none" text-anchor="none" style="mix-blend-mode: normal"><path d="M0,172v-172h172v172z" fill="none"></path><g fill="#ffffff"><path d="M8.0625,5.375c-1.48619,0 -2.6875,1.204 -2.6875,2.6875v155.875c0,1.4835 1.20131,2.6875 2.6875,2.6875h155.875c1.48619,0 2.6875,-1.204 2.6875,-2.6875v-155.875c0,-1.4835 -1.20131,-2.6875 -2.6875,-2.6875zM10.75,10.75h150.5v150.5h-150.5zM21.5,18.8125c-1.48619,0 -2.6875,1.204 -2.6875,2.6875v48.375c0,1.4835 1.20131,2.6875 2.6875,2.6875h61.8125c1.10725,0 2.10066,-0.68174 2.50379,-1.71643l18.8125,-48.375c0.3225,-0.82775 0.21643,-1.75435 -0.28345,-2.48804c-0.49988,-0.73369 -1.33346,-1.17053 -2.22034,-1.17053zM112.875,18.8125c-1.10725,0 -2.10066,0.68174 -2.50379,1.71643l-18.8125,48.375c-0.3225,0.82775 -0.21643,1.75435 0.28345,2.48804c0.49988,0.73369 1.33346,1.17053 2.22034,1.17053h56.4375c1.48619,0 2.6875,-1.204 2.6875,-2.6875v-48.375c0,-1.4835 -1.20131,-2.6875 -2.6875,-2.6875zM24.1875,24.1875h74.00598l-16.71814,43h-57.28784zM114.71216,24.1875h33.10034v43h-49.81848zM21.5,77.9375c-1.48619,0 -2.6875,1.204 -2.6875,2.6875v37.625c0,1.4835 1.20131,2.6875 2.6875,2.6875h43c1.48619,0 2.6875,-1.204 2.6875,-2.6875v-37.625c0,-1.4835 -1.20131,-2.6875 -2.6875,-2.6875zM75.25,77.9375c-1.48619,0 -2.6875,1.204 -2.6875,2.6875v37.625c0,1.4835 1.20131,2.6875 2.6875,2.6875h75.25c1.48619,0 2.6875,-1.204 2.6875,-2.6875v-37.625c0,-1.4835 -1.20131,-2.6875 -2.6875,-2.6875zM24.1875,83.3125h37.625v32.25h-37.625zM77.9375,83.3125h69.875v32.25h-69.875zM21.5,126.3125c-1.48619,0 -2.6875,1.204 -2.6875,2.6875v21.5c0,1.4835 1.20131,2.6875 2.6875,2.6875h129c1.48619,0 2.6875,-1.204 2.6875,-2.6875v-21.5c0,-1.4835 -1.20131,-2.6875 -2.6875,-2.6875zM24.1875,131.6875h123.625v16.125h-123.625z"></path></g></g></svg>
