<svg xmlns="http://www.w3.org/2000/svg" x="0px" y="0px"
width="45" height="45"
viewBox="0 0 172 172"
style=" fill:#ffffff;"><g fill="none" fill-rule="nonzero" stroke="none" stroke-width="1" stroke-linecap="butt" stroke-linejoin="miter" stroke-miterlimit="10" stroke-dasharray="" stroke-dashoffset="0" font-family="none" font-weight="none" font-size="none" text-anchor="none" style="mix-blend-mode: normal"><path d="M0,172v-172h172v172z" fill="none"></path><g fill="#ffffff"><path d="M110.1875,5.375c-20.39544,0 -37.88506,14.45665 -42.01843,34.12915c-3.70606,-1.20669 -7.64388,-1.87915 -11.73157,-1.87915c-20.7475,0 -37.625,16.8775 -37.625,37.625c0,5.72706 1.32141,11.40117 3.84229,16.53967l-16.49243,16.49768c-0.76863,0.76863 -0.9992,1.92383 -0.58264,2.92895c0.41388,1.00244 1.39704,1.65869 2.48279,1.65869h35.07397c-0.04838,0.89494 -0.13647,1.77912 -0.13647,2.6875c0,28.15694 22.90556,51.0625 51.0625,51.0625h69.875c1.08575,0 2.06891,-0.65626 2.48279,-1.65869c0.41656,-1.00512 0.18598,-2.16033 -0.58264,-2.92895l-25.33704,-25.33704c3.06913,-6.69725 4.62439,-13.79825 4.62439,-21.13782c0,-8.74781 -2.21836,-16.98231 -6.10986,-24.1875h24.92236c1.08575,0 2.06891,-0.65626 2.48279,-1.65869c0.41656,-1.00513 0.18598,-2.16033 -0.58264,-2.92895l-17.89917,-17.89917c3.44,-6.31025 5.24902,-13.35906 5.24902,-20.51318c0,-23.70912 -19.29087,-43 -43,-43zM110.1875,10.75c20.7475,0 37.625,16.8775 37.625,37.625c0,6.86925 -1.90985,13.62936 -5.52722,19.55261c-0.645,1.05888 -0.48245,2.42282 0.39368,3.30163l14.77075,14.77075h-21.76245c-2.63644,-3.70606 -5.71992,-6.98318 -9.1438,-9.81043c-0.01344,-0.01075 -0.02855,-0.01805 -0.04199,-0.03149c-2.48056,-2.04519 -5.14396,-3.843 -7.94702,-5.38025c-0.09944,-0.05644 -0.19707,-0.11422 -0.29919,-0.16797c-1.34644,-0.72563 -2.72542,-1.39263 -4.13098,-1.99463c-0.18275,-0.07794 -0.37096,-0.15302 -0.5564,-0.23096c-1.38675,-0.57512 -2.7929,-1.10221 -4.23071,-1.55371c-0.04569,-0.01344 -0.09079,-0.02855 -0.13648,-0.04199c-1.42169,-0.44075 -2.87369,-0.8036 -4.33569,-1.11804c-0.30369,-0.06719 -0.60695,-0.1324 -0.91333,-0.19421c-1.43244,-0.28219 -2.87894,-0.50806 -4.34094,-0.66663c-0.28487,-0.03225 -0.57328,-0.04661 -0.86084,-0.07348c-1.55069,-0.13975 -3.1125,-0.23621 -4.68738,-0.23621c-0.52944,0 -1.05858,0.01256 -1.57996,0.03674c-0.03763,-0.12631 -0.0936,-0.24637 -0.13123,-0.37268c-3.08794,-10.08081 -10.10269,-18.10636 -19.13269,-22.5918c3.23037,-17.70256 18.79062,-30.82227 36.96887,-30.82227zM94.0625,29.5625v5.375h32.25v-5.375zM94.0625,40.3125v5.375h32.25v-5.375zM56.4375,43c4.42631,0 8.66211,0.88847 12.52942,2.50903c0.07525,0.04031 0.13727,0.10154 0.21521,0.13647c8.11356,3.50988 14.40819,10.22527 17.44775,18.39258c0.05912,0.15856 0.12728,0.32166 0.18371,0.48291c0.05912,0.16931 0.09579,0.34766 0.15222,0.51966c-0.13975,0.01881 -0.27492,0.05199 -0.41467,0.07349c-0.19887,0.02956 -0.39951,0.06223 -0.59839,0.09448c-0.00538,0 -0.00769,-0.00269 -0.01575,0l-0.40417,0.05774c-0.00806,0 -0.01293,0.00256 -0.021,0.00525c-3.38356,0.57512 -6.6508,1.47556 -9.77368,2.68225c-0.25531,0.09944 -0.5163,0.18388 -0.77161,0.2887c-0.84656,0.34131 -1.66566,0.72579 -2.48804,1.11279c-0.57781,0.26875 -1.15987,0.53909 -1.72693,0.82934c-0.69606,0.35744 -1.37781,0.73104 -2.05237,1.11804c-0.69875,0.40044 -1.38037,0.82183 -2.05762,1.25452c-0.54825,0.35206 -1.10288,0.69724 -1.6377,1.0708c-0.92181,0.63962 -1.81662,1.31956 -2.69275,2.01563c-0.27413,0.22038 -0.56316,0.41988 -0.8346,0.64563c-1.17981,0.97825 -2.31037,2.00605 -3.39612,3.08642c-0.17469,0.172 -0.33191,0.35803 -0.50391,0.5354c-0.90031,0.91912 -1.76258,1.8666 -2.59302,2.85022c-0.26069,0.30906 -0.50848,0.63039 -0.76111,0.94482c-0.71488,0.89225 -1.39931,1.80462 -2.05237,2.74524c-0.24994,0.35744 -0.49567,0.71324 -0.73486,1.07605c-0.64231,0.97556 -1.2436,1.97338 -1.82141,2.99195c-0.18813,0.33325 -0.39464,0.66137 -0.57739,0.99731c-0.72025,1.34644 -1.39007,2.71736 -1.98938,4.13098c-0.086,0.20156 -0.15033,0.41257 -0.23096,0.61413c-0.48375,1.1825 -0.92769,2.38583 -1.32276,3.61133c-0.20425,0.63156 -0.37108,1.27883 -0.55115,1.92114c-0.22575,0.81163 -0.44969,1.62086 -0.63513,2.45129c-0.172,0.7525 -0.3196,1.51483 -0.45667,2.27808c-0.05913,0.32787 -0.14315,0.64576 -0.19421,0.97632h-29.10584l13.30102,-13.30627c0.84925,-0.84925 1.03473,-2.16159 0.44617,-3.2124c-2.6875,-4.79719 -4.10999,-10.24076 -4.10999,-15.73132c0,-17.78319 14.46681,-32.25 32.25,-32.25zM94.0625,51.0625v5.375h32.25v-5.375zM40.3125,56.4375v5.375h5.375v-5.375zM51.0625,56.4375v5.375h5.375v-5.375zM61.8125,56.4375v5.375h5.375v-5.375zM40.3125,67.1875v5.375h5.375v-5.375zM51.0625,67.1875v5.375h5.375v-5.375zM94.0625,69.875c1.40556,0 2.79441,0.08365 4.16772,0.20996c0.28487,0.02688 0.56547,0.05173 0.85034,0.08398c1.31418,0.14512 2.61296,0.34051 3.88952,0.59314c0.26606,0.05375 0.52923,0.11678 0.7926,0.17322c1.19862,0.26069 2.38465,0.56127 3.54834,0.91333c0.14243,0.043 0.28798,0.08029 0.43042,0.12598c1.27925,0.40313 2.52486,0.86731 3.75305,1.37524c0.215,0.08869 0.43332,0.18157 0.64563,0.27295c2.58538,1.118 5.05313,2.45944 7.36438,4.0155c0.04569,0.02956 0.08823,0.05967 0.13123,0.08923c3.58781,2.43219 6.80622,5.36001 9.56897,8.68713c0.07256,0.086 0.14265,0.17645 0.21521,0.26245c6.45,7.87706 10.33008,17.93381 10.33008,28.88538c0,7.138 -1.6429,14.03156 -4.89209,20.48694c-0.52138,1.03469 -0.31835,2.28773 0.49865,3.10742l22.09314,22.09314h-63.38721c-25.19262,0 -45.6875,-20.49488 -45.6875,-45.6875c0,-1.80331 0.13425,-3.57295 0.34119,-5.32251c0.23381,-2.021 0.63161,-3.98871 1.11804,-5.91565c0.16663,-0.65575 0.31041,-1.31557 0.50391,-1.95788c0.18544,-0.61544 0.41501,-1.21148 0.62463,-1.81616c0.26338,-0.75518 0.52309,-1.51545 0.82409,-2.25183c0.21769,-0.53213 0.45893,-1.04808 0.69812,-1.56946c0.35744,-0.78475 0.72285,-1.56476 1.12329,-2.32532c0.24456,-0.46494 0.50311,-0.92362 0.76111,-1.38049c0.4515,-0.79013 0.92005,-1.56475 1.41723,-2.32532c0.26607,-0.4085 0.53679,-0.80953 0.8136,-1.20728c0.54288,-0.77669 1.11212,-1.53376 1.70068,-2.27283c0.28219,-0.35475 0.55741,-0.71361 0.85034,-1.0603c0.63425,-0.7525 1.30151,-1.47409 1.98413,-2.18359c0.29294,-0.30369 0.57034,-0.62295 0.87134,-0.91858c0.74175,-0.731 1.52469,-1.41967 2.31482,-2.09961c0.27681,-0.23919 0.53666,-0.49849 0.81885,-0.72962c1.04275,-0.85462 2.1259,-1.66448 3.2439,-2.42505c0.62619,-0.42462 1.28396,-0.8044 1.93164,-1.19678c0.50525,-0.30906 1.00097,-0.63358 1.51697,-0.92383c0.80625,-0.44881 1.64173,-0.85139 2.47754,-1.25452c0.37625,-0.18006 0.74691,-0.37133 1.12854,-0.54065c0.87344,-0.38969 1.76875,-0.73755 2.67175,-1.0708c0.00806,-0.00269 0.01818,-0.00256 0.02625,-0.00525h0.00525c0.24187,-0.08869 0.48249,-0.17914 0.72436,-0.26245c0.34669,-0.11556 0.69262,-0.22831 1.03931,-0.34119l0.18371,-0.05774c0.00806,-0.00269 0.01562,-0.00781 0.021,-0.0105c0.68263,-0.21769 1.36155,-0.43651 2.05762,-0.62463c0.00538,0 0.01037,-0.00256 0.01575,-0.00525c0.215,-0.05644 0.43319,-0.10641 0.65088,-0.15747c0.086,-0.0215 0.17632,-0.04417 0.2677,-0.06299l0.46191,-0.11023l0.01575,-0.0105c0.94331,-0.22038 1.88541,-0.43445 2.85022,-0.59839c0.0645,-0.01075 0.12971,-0.02074 0.19421,-0.03149c0.01344,-0.00269 0.02331,0.00269 0.03674,0c0.02687,-0.00269 0.06979,-0.01037 0.11548,-0.01575c0.06719,-0.00806 0.14416,-0.01831 0.15222,-0.02099c0.01075,-0.00269 0.0155,-0.00525 0.02625,-0.00525c1.21744,-0.19081 2.44831,-0.34954 3.69531,-0.44092h0.00525c1.12875,-0.08869 2.25637,-0.17847 3.40662,-0.17847zM69.875,91.375v5.375h48.375v-5.375zM69.875,102.125v5.375h48.375v-5.375zM69.875,112.875v5.375h48.375v-5.375zM69.875,123.625v5.375h48.375v-5.375zM69.875,134.375v5.375h48.375v-5.375z"></path></g></g></svg>
