<svg xmlns="http://www.w3.org/2000/svg" x="0px" y="0px"
width="45" height="45"
viewBox="0 0 172 172"
style=" fill:#ffffff;"><g fill="none" fill-rule="nonzero" stroke="none" stroke-width="1" stroke-linecap="butt" stroke-linejoin="miter" stroke-miterlimit="10" stroke-dasharray="" stroke-dashoffset="0" font-family="none" font-weight="none" font-size="none" text-anchor="none" style="mix-blend-mode: normal"><path d="M0,172v-172h172v172z" fill="none"></path><g fill="#ffffff"><path d="M86,5.375c-14.81887,0 -26.875,12.05612 -26.875,26.875c0,7.611 3.19514,14.48021 8.29871,19.37414c-10.87363,2.365 -19.04871,12.05348 -19.04871,23.62586v40.3125h-21.5v-28.44971l15.33765,-15.33765l-3.80029,-3.80029l-16.125,16.125c-0.50525,0.50256 -0.78735,1.18527 -0.78735,1.90015v29.5625h-13.4375c-1.4835,0 -2.6875,1.20131 -2.6875,2.6875v32.25c0,1.48619 1.204,2.6875 2.6875,2.6875h45.6875v10.75c0,1.48619 1.204,2.6875 2.6875,2.6875h59.125c1.4835,0 2.6875,-1.20131 2.6875,-2.6875v-10.75h45.6875c1.4835,0 2.6875,-1.20131 2.6875,-2.6875v-32.25c0,-1.48619 -1.204,-2.6875 -2.6875,-2.6875h-10.75v-29.5625c0,-0.71487 -0.2821,-1.39758 -0.78735,-1.90015l-16.125,-16.125l-3.80029,3.80029l15.33765,15.33765v28.44971h-21.5v-40.3125c0,-12.36787 -9.3326,-22.57941 -21.32153,-24.00379c4.86975,-4.86706 7.88403,-11.58409 7.88403,-18.99621c0,-14.81888 -12.05612,-26.875 -26.875,-26.875zM86,10.75c11.85456,0 21.5,9.64544 21.5,21.5c0,8.385 -4.83254,15.64562 -11.85229,19.19043c-0.65575,0.33056 -1.32519,0.62115 -2.00513,0.88184c-0.13169,0.05106 -0.2698,0.0986 -0.40418,0.14697c-0.65844,0.2365 -1.32275,0.43957 -1.99463,0.60889c-0.12094,0.02956 -0.24125,0.06492 -0.36218,0.09448c-0.7525,0.17469 -1.50958,0.3128 -2.27283,0.40418c-0.03763,0.00537 -0.07261,0.01306 -0.11023,0.01575c-1.66088,0.1935 -3.34145,0.1935 -5.00232,0c-0.03762,-0.00537 -0.0726,-0.01306 -0.11023,-0.01575c-0.76325,-0.09406 -1.52033,-0.22949 -2.27283,-0.40418c-0.12094,-0.02956 -0.24125,-0.05967 -0.36218,-0.08923c-0.67187,-0.16931 -1.33888,-0.37239 -1.99463,-0.60889c-0.13438,-0.04838 -0.2698,-0.09591 -0.40418,-0.14697c-0.67994,-0.258 -1.34938,-0.55652 -2.00513,-0.88708c-7.01438,-3.5475 -11.84705,-10.80543 -11.84705,-19.19043c0,-11.85456 9.64544,-21.5 21.5,-21.5zM97.68433,56.43225h0.09448l-11.77881,23.55762l-11.77881,-23.55237h0.09448c0.1075,0.05106 0.22319,0.08541 0.33069,0.13647c0.688,0.3225 1.39254,0.61577 2.11011,0.88184c0.20425,0.07525 0.40195,0.15583 0.60889,0.22571c0.76594,0.26069 1.54557,0.48106 2.34107,0.67188c0.14781,0.03494 0.29311,0.08323 0.44092,0.11548c1.88662,0.41925 3.84241,0.65613 5.85266,0.65613c2.01025,0 3.96604,-0.23944 5.85266,-0.66138c0.14781,-0.03225 0.29311,-0.07529 0.44092,-0.11023c0.7955,-0.19081 1.57513,-0.41644 2.34107,-0.67712c0.20694,-0.06988 0.40464,-0.15046 0.60889,-0.22571c0.71756,-0.26337 1.42211,-0.55409 2.11011,-0.87659c0.1075,-0.05106 0.22319,-0.08797 0.33069,-0.14172zM103.74695,56.51624c9.61588,0.82775 17.19055,8.90826 17.19055,18.73376v40.3125h-67.1875v-40.3125c0,-8.95744 6.29883,-16.4614 14.69727,-18.34534l15.14868,30.29736c0.45419,0.91106 1.38549,1.48547 2.40405,1.48547c1.01856,0 1.94718,-0.57441 2.40405,-1.48547zM83.3125,96.75v5.375h5.375v-5.375zM10.75,120.9375h40.3125h72.5625h37.625v26.875h-45.6875c-1.4835,0 -2.6875,1.20131 -2.6875,2.6875v10.75h-53.75v-10.75c0,-1.48619 -1.204,-2.6875 -2.6875,-2.6875h-45.6875zM72.5625,126.3125v5.375h5.375v-5.375zM83.3125,126.3125v5.375h5.375v-5.375zM94.0625,126.3125v5.375h5.375v-5.375z"></path></g></g></svg>
