<svg xmlns="http://www.w3.org/2000/svg" x="0px" y="0px"
width="45" height="45"
viewBox="0 0 172 172"
style=" fill:#000000;"><g fill="none" fill-rule="nonzero" stroke="none" stroke-width="1" stroke-linecap="butt" stroke-linejoin="miter" stroke-miterlimit="10" stroke-dasharray="" stroke-dashoffset="0" font-family="none" font-weight="none" font-size="none" text-anchor="none" style="mix-blend-mode: normal"><path d="M0,172v-172h172v172z" fill="none"></path><g fill="#ffffff"><path d="M26.875,5.375c-11.85456,0 -21.5,9.64544 -21.5,21.5c0,11.85456 9.64544,21.5 21.5,21.5c2.49938,0 4.88961,-0.45133 7.12293,-1.23877l16.4032,32.80115c-6.16781,5.42069 -10.08862,13.34843 -10.08862,22.18762c0,7.18369 2.58466,13.7713 6.86047,18.90173l-16.34546,16.34546c-2.63644,-1.87856 -5.84989,-2.99719 -9.32751,-2.99719c-8.89294,0 -16.125,7.23206 -16.125,16.125c0,8.89294 7.23206,16.125 16.125,16.125c8.89294,0 16.125,-7.23206 16.125,-16.125c0,-3.47762 -1.11863,-6.69108 -2.99719,-9.32751l16.34546,-16.34546c5.13044,4.27581 11.71805,6.86047 18.90173,6.86047c11.02144,0 20.63815,-6.07551 25.72021,-15.0437l22.70203,11.35364c-0.01075,0.33594 -0.04724,0.66394 -0.04724,1.00256c0,13.33806 10.85213,24.1875 24.1875,24.1875c13.33538,0 24.1875,-10.84944 24.1875,-24.1875c0,-13.33806 -10.85212,-24.1875 -24.1875,-24.1875c-11.05638,0 -20.38549,7.46504 -23.25842,17.61572l-21.37927,-10.69226c1.04275,-3.01806 1.6377,-6.24084 1.6377,-9.61096c0,-7.18906 -2.5871,-13.78179 -6.87097,-18.91223l34.54382,-34.95325c4.17638,3.42656 9.51409,5.49048 15.32715,5.49048c13.33538,0 24.1875,-10.84944 24.1875,-24.1875c0,-13.33806 -10.85212,-24.1875 -24.1875,-24.1875c-13.33537,0 -24.1875,10.84944 -24.1875,24.1875c0,5.59 1.92492,10.73261 5.12305,14.83374l-34.60681,35.01624c-5.12775,-4.27044 -11.71292,-6.84998 -18.89124,-6.84998c-5.50669,0 -10.64376,1.53922 -15.0647,4.17297l-15.99902,-31.9928c5.762,-3.86194 9.56372,-10.42868 9.56372,-17.86768c0,-11.85456 -9.64544,-21.5 -21.5,-21.5zM94.0625,5.375c-7.40944,0 -13.4375,6.02806 -13.4375,13.4375c0,7.40944 6.02806,13.4375 13.4375,13.4375c7.40944,0 13.4375,-6.02806 13.4375,-13.4375c0,-7.40944 -6.02806,-13.4375 -13.4375,-13.4375zM26.875,10.75c8.89294,0 16.125,7.23206 16.125,16.125c0,8.89294 -7.23206,16.125 -16.125,16.125c-8.89294,0 -16.125,-7.23206 -16.125,-16.125c0,-8.89294 7.23206,-16.125 16.125,-16.125zM94.0625,10.75c4.44513,0 8.0625,3.61738 8.0625,8.0625c0,4.44513 -3.61737,8.0625 -8.0625,8.0625c-4.44513,0 -8.0625,-3.61737 -8.0625,-8.0625c0,-4.44512 3.61737,-8.0625 8.0625,-8.0625zM142.4375,10.75c10.37375,0 18.8125,8.44144 18.8125,18.8125c0,10.37106 -8.43875,18.8125 -18.8125,18.8125c-10.37375,0 -18.8125,-8.44144 -18.8125,-18.8125c0,-10.37106 8.43875,-18.8125 18.8125,-18.8125zM67.1875,37.625c-7.40944,0 -13.4375,6.02806 -13.4375,13.4375c0,7.40944 6.02806,13.4375 13.4375,13.4375c7.40944,0 13.4375,-6.02806 13.4375,-13.4375c0,-7.40944 -6.02806,-13.4375 -13.4375,-13.4375zM67.1875,43c4.44513,0 8.0625,3.61738 8.0625,8.0625c0,4.44512 -3.61737,8.0625 -8.0625,8.0625c-4.44512,0 -8.0625,-3.61738 -8.0625,-8.0625c0,-4.44512 3.61738,-8.0625 8.0625,-8.0625zM155.875,56.4375c-5.92863,0 -10.75,4.82138 -10.75,10.75c0,5.92862 4.82137,10.75 10.75,10.75c5.92863,0 10.75,-4.82138 10.75,-10.75c0,-5.92862 -4.82137,-10.75 -10.75,-10.75zM155.875,61.8125c2.96431,0 5.375,2.41069 5.375,5.375c0,2.96431 -2.41069,5.375 -5.375,5.375c-2.96431,0 -5.375,-2.41069 -5.375,-5.375c0,-2.96431 2.41069,-5.375 5.375,-5.375zM13.4375,64.5c-4.44512,0 -8.0625,3.61737 -8.0625,8.0625c0,4.44513 3.61738,8.0625 8.0625,8.0625c4.44513,0 8.0625,-3.61737 8.0625,-8.0625c0,-4.44513 -3.61737,-8.0625 -8.0625,-8.0625zM13.4375,69.875c1.48081,0 2.6875,1.204 2.6875,2.6875c0,1.4835 -1.20669,2.6875 -2.6875,2.6875c-1.48081,0 -2.6875,-1.204 -2.6875,-2.6875c0,-1.4835 1.20669,-2.6875 2.6875,-2.6875zM126.3125,69.875c-8.89294,0 -16.125,7.23206 -16.125,16.125c0,8.89294 7.23206,16.125 16.125,16.125c8.89294,0 16.125,-7.23206 16.125,-16.125c0,-8.89294 -7.23206,-16.125 -16.125,-16.125zM126.3125,75.25c5.92863,0 10.75,4.82138 10.75,10.75c0,5.92863 -4.82137,10.75 -10.75,10.75c-5.92863,0 -10.75,-4.82137 -10.75,-10.75c0,-5.92862 4.82137,-10.75 10.75,-10.75zM69.875,77.9375c13.33538,0 24.1875,10.84944 24.1875,24.1875c0,13.33806 -10.85212,24.1875 -24.1875,24.1875c-13.33537,0 -24.1875,-10.84944 -24.1875,-24.1875c0,-13.33806 10.85213,-24.1875 24.1875,-24.1875zM22.84375,96.75c-6.66769,0 -12.09375,5.42606 -12.09375,12.09375c0,6.66769 5.42606,12.09375 12.09375,12.09375c6.66769,0 12.09375,-5.42606 12.09375,-12.09375c0,-6.66769 -5.42606,-12.09375 -12.09375,-12.09375zM22.84375,102.125c3.70338,0 6.71875,3.01269 6.71875,6.71875c0,3.70606 -3.01537,6.71875 -6.71875,6.71875c-3.70338,0 -6.71875,-3.01269 -6.71875,-6.71875c0,-3.70606 3.01537,-6.71875 6.71875,-6.71875zM142.4375,110.1875c10.37375,0 18.8125,8.44144 18.8125,18.8125c0,10.37106 -8.43875,18.8125 -18.8125,18.8125c-10.37375,0 -18.8125,-8.44144 -18.8125,-18.8125c0,-10.37106 8.43875,-18.8125 18.8125,-18.8125zM88.6875,134.375c-8.89294,0 -16.125,7.23206 -16.125,16.125c0,8.89294 7.23206,16.125 16.125,16.125c8.89294,0 16.125,-7.23206 16.125,-16.125c0,-8.89294 -7.23206,-16.125 -16.125,-16.125zM21.5,139.75c5.92863,0 10.75,4.82137 10.75,10.75c0,5.92863 -4.82137,10.75 -10.75,10.75c-5.92862,0 -10.75,-4.82137 -10.75,-10.75c0,-5.92863 4.82138,-10.75 10.75,-10.75zM88.6875,139.75c5.92863,0 10.75,4.82137 10.75,10.75c0,5.92863 -4.82137,10.75 -10.75,10.75c-5.92862,0 -10.75,-4.82137 -10.75,-10.75c0,-5.92863 4.82138,-10.75 10.75,-10.75z"></path></g></g></svg>
