<svg xmlns="http://www.w3.org/2000/svg" x="0px" y="0px"
width="45" height="45"
viewBox="0 0 172 172"
style=" fill:#000000;"><g fill="none" fill-rule="nonzero" stroke="none" stroke-width="1" stroke-linecap="butt" stroke-linejoin="miter" stroke-miterlimit="10" stroke-dasharray="" stroke-dashoffset="0" font-family="none" font-weight="none" font-size="none" text-anchor="none" style="mix-blend-mode: normal"><path d="M0,172v-172h172v172z" fill="none"></path><g fill="#ffffff"><path d="M48.375,10.75c-14.81887,0 -26.875,12.05613 -26.875,26.875c0,8.87144 4.34002,16.72935 10.98621,21.62598c-15.15481,1.25506 -27.11121,13.96459 -27.11121,29.43652v2.58252v72.66748v0.2572h0.05249c0.13706,1.35719 1.24288,2.4303 2.63501,2.4303h61.8125c1.4835,0 2.6875,-1.204 2.6875,-2.6875v-37.90845c2.82188,2.881 6.57094,4.84124 10.75,5.44324v0.21521h2.6875h33.59375h41.65625v10.75h-10.75v5.375h5.375v18.8125h5.375v-18.8125h2.6875c1.4835,0 2.6875,-1.204 2.6875,-2.6875v-16.125c0,-1.4835 -1.204,-2.6875 -2.6875,-2.6875h-34.29712c1.29,-1.92425 2.04712,-4.23281 2.04712,-6.71875c0,-2.48594 -0.75712,-4.7945 -2.04712,-6.71875h23.54712c7.40944,0 13.4375,-6.02806 13.4375,-13.4375v-75.25c0,-7.40944 -6.02806,-13.4375 -13.4375,-13.4375zM48.375,16.125c11.85456,0 21.5,9.64544 21.5,21.5c0,4.99606 -1.7279,9.58829 -4.59815,13.24329c-5.01487,-0.90569 -8.83935,-5.28291 -8.83935,-10.55579h-5.375c0,6.63275 4.0255,12.33756 9.75793,14.81274c-3.51525,2.51013 -7.80412,3.99976 -12.44543,3.99976c-11.85456,0 -21.5,-9.64544 -21.5,-21.5c0,-11.85456 9.64544,-21.5 21.5,-21.5zM64.43176,16.125h88.75574c4.44513,0 8.0625,3.61737 8.0625,8.0625v61.8125h-12.39294l3.36462,-10.08862c2.49669,-7.49275 1.92517,-15.50805 -1.6062,-22.5708l-2.58777,-5.17029l0.13123,-0.38843c3.28144,-9.83894 0.04813,-20.80217 -8.052,-27.28442l-1.36474,-1.0918c-0.98094,-0.78475 -2.37575,-0.78475 -3.35937,0l-1.3595,1.0813c-8.10012,6.47956 -11.336,17.4428 -8.05725,27.28442l0.13123,0.39892l-2.58777,5.17029c-3.53137,7.06275 -4.09764,15.07549 -1.60095,22.56555l3.36462,10.09387h-12.39819v-24.1875h-0.02099c0,-0.33594 -0.03897,-0.67213 -0.16797,-0.99732l-10.75,-26.875c-0.41119,-1.01856 -1.39935,-1.69018 -2.49854,-1.69018c-1.09919,0 -2.08735,0.67162 -2.49854,1.69018l-10.75,26.875c-0.129,0.32519 -0.16797,0.66138 -0.16797,0.99732h-0.02099v9.93115c-4.91006,-6.9875 -12.75727,-11.74824 -21.73621,-12.49267c6.64619,-4.89662 10.98621,-12.75454 10.98621,-21.62598c0,-8.79619 -4.2688,-16.59531 -10.81824,-21.5zM137.0625,24.94861c3.60663,3.01269 5.89226,7.19133 6.66626,11.66333l-2.77673,-1.39099c-1.03469,-0.51331 -2.28517,-0.30785 -3.10217,0.50915l-1.61145,1.61145l-5.68994,-1.42773c0.88688,-4.20325 3.09823,-8.11108 6.51404,-10.96521zM140.28015,40.89514l3.56409,1.78467c-0.14244,1.0105 -0.35232,2.01857 -0.66138,3.01294h-12.24072c-0.44075,-1.42438 -0.66154,-2.87663 -0.76636,-4.3252l6.23584,1.55371c0.21769,0.05375 0.43319,0.07874 0.65088,0.07874c0.70413,0 1.38952,-0.27673 1.90015,-0.78735zM99.4375,42.17065l5.71619,14.28784c-0.52138,-0.06987 -1.06484,0.02327 -1.54321,0.26245l-4.17297,2.08911l-4.17297,-2.08911c-0.37625,-0.19081 -0.79084,-0.28345 -1.20203,-0.28345c-0.11288,0 -0.22831,0.00487 -0.34119,0.02099zM130.65869,51.0625h12.80761l2.34107,4.68213c0.11288,0.22844 0.19695,0.46174 0.30445,0.69287h-18.09338c0.10481,-0.22844 0.18632,-0.46443 0.29919,-0.69287zM126.25476,61.8125h21.62073c0.82506,4.08769 0.59864,8.33469 -0.75586,12.39819l-3.93152,11.78931h-12.25122l-3.92627,-11.78931c-1.3545,-4.0635 -1.58361,-8.31051 -0.75586,-12.39819zM94.0625,62.12744l2.6875,1.34375v22.52881h-5.375v-22.52881zM104.8125,62.12744l2.6875,1.34375v22.52881h-5.375v-22.52881zM34.9375,64.5h26.875c13.33538,0 24.1875,10.85213 24.1875,24.1875v21.5c0,1.4835 1.204,2.6875 2.6875,2.6875h30.90625c3.70337,0 6.71875,3.01538 6.71875,6.71875c0,3.70337 -3.01538,6.71875 -6.71875,6.71875h-33.59375c-7.40944,0 -13.4375,-6.02806 -13.4375,-13.4375v-24.1875h-5.375v72.5625h-5.375v-61.32959c0,-2.81919 -1.19069,-5.51546 -3.35413,-7.58484c-2.59344,-2.48594 -6.32625,-3.80663 -10.08337,-3.64807h-37.625c0,-13.33537 10.85213,-24.1875 24.1875,-24.1875zM91.375,91.375h37.625h16.125h16.125v8.0625c0,4.44513 -3.61737,8.0625 -8.0625,8.0625h-33.59375h-28.21875zM48.49048,94.05725c2.451,-0.10212 4.71165,0.6846 6.25159,2.15735c0.774,0.74175 1.69543,1.9885 1.69543,3.70581v61.32959h-45.6875v-67.1875zM99.4375,96.75v5.375h5.375v-5.375z"></path></g></g></svg>
